<?xml version="1.0" encoding="utf-8"?>
<!-- Generator: Adobe Illustrator 26.5.0, SVG Export Plug-In . SVG Version: 6.00 Build 0)  -->
<svg version="1.1" id="Wedge_x5F_sneaker" xmlns="http://www.w3.org/2000/svg" xmlns:xlink="http://www.w3.org/1999/xlink" x="0px"
	 y="0px" viewBox="0 0 512 512" style="enable-background:new 0 0 512 512;" xml:space="preserve">
<style type="text/css">
	.st0{fill:#F2EAE2;}
	.st1{fill:#F28F8F;}
	.st2{fill:#5A5954;}
	.st3{fill:#C0C0C0;}
</style>
<path class="st0" d="M164.4,58c0,0,37.1-37.6,58.1-25.6s3.8,53.1,30.7,65.8L241,108.8C241,108.8,213.3,100.5,164.4,58z"/>
<path class="st1" d="M45,226.8c0,0-12.8-7.8-12.8-18.3s0-54,0-54s10.4,9,43.5-30c33-39,57-84,79.5-72c22.5,12,31,26.2,60.3,43.5
	c29.3,17.3,169.2,74.4,187.2,69.9c18-4.5,70.8,20.1,71.4,51.6c0.6,31.5-8.8,29.7-8.8,29.7S199.8,239,45,226.8z"/>
<path class="st0" d="M232,111.7c8-7.5,17.5-13.2,30.6-2.2c3.8,3.2,7.7,10.6,1.3,18.4c-23.3,28.4-26,29.6-32.6,38.2
	c-8.7,11.3-20.6,24.4-11.6,31.9c9.9,8.2,22.6-7.4,29.8-15.7c18.3-20.9,14.5-19.6,31-39.6c8.9-10.8,19-24,34-13.5
	c15,10.5-5.6,29.9-9.7,34.3c-5.5,6-16.1,21.2-16.1,21.2s-8.9,9.4,1.8,18.3c8,6.7,17.1-0.5,22.2-6.3c17.3-19.7,15-17.2,28.5-35
	c4-5.2,13.2-16.5,25.5-6c11.8,10-4.6,26.1-9.2,31.5c-12.9,15.4-16.3,45.1-16.3,55.6l-201-7C138,201.3,196.5,145.1,232,111.7z"/>
<path class="st0" d="M449.1,297.9H308.7H50c-16.5,0-22-13.5-22-30v-12c0-16.5,5.5-30,22-30c0,0,53.2,14.3,258.7,14.3
	c58.3,0,140.3,4.7,140.3,4.7c16.5,0,30,5.5,30,22v1C479.1,284.4,465.6,297.9,449.1,297.9z"/>
<path class="st2" d="M477.3,246.2c2.3-6.3,4.1-15.5,3.8-28.8c-0.6-33.5-49.3-59-73.5-59c-2.4,0-4.7,0.2-6.6,0.7c0,0-0.3,0.1-0.9,0.1
	c-4.8,0-14.1-2.2-26.1-5.9c-0.8-1-1.8-2-2.8-2.9c-4.7-4-9.6-6-14.6-6c-2.2,0-4.3,0.4-6.2,1c-7.5-2.6-15.5-5.6-23.6-8.6
	c-0.4-3.8-2.2-9.1-8.3-13.3c-4.8-3.4-9.8-5.1-14.7-5.1c-4.9,0-9.3,1.7-13.2,4.2c-5.7-2.3-11.2-4.6-16.6-6.9
	c-0.9-4.6-3.4-8.7-6.9-11.6c-2.3-2-4.7-3.5-7.1-4.8c0.1-0.7,0.2-1.5,0.1-2.2c-0.3-2.3-1.8-4.4-3.9-5.4c-10.1-4.8-12-14.6-13.9-30.2
	c-1.6-13.1-3.4-27.9-16.3-35.3c-3.8-2.2-8.2-3.3-12.9-3.3c-18.9,0-40.5,17.8-49.6,26.2c-1.6-0.9-3.2-1.9-5-2.8
	c-3.5-1.9-7.2-2.8-10.9-2.8c-18.2,0-34.3,21.1-54.7,47.9c-7.2,9.4-14.6,19.1-22.6,28.6c-23.3,27.4-33.1,28.4-34.7,28.4
	c-1.9-1.1-4.3-1.2-6.3-0.3c-2.5,1.1-4.1,3.6-4.1,6.4v54c0,6.7,3.3,12.3,6.9,16.4C26,230,21,239.3,21,255.8v12c0,33.4,20.3,37,29,37
	h399c20.4,0,37-16.6,37-37v-1C486.1,261.8,484.9,252.8,477.3,246.2z M404.4,172.7c0.6-0.1,1.6-0.3,3.2-0.3c18.8,0,59,21.4,59.5,45.3
	c0.2,10.7-1,17.6-2.3,22.1c-4.3-1.2-9.4-1.9-15.5-1.9c-3.5-0.2-52.4-2.9-100.5-4.1c1.4-12.9,5.4-31.7,14.1-42
	c0.4-0.5,0.9-1.1,1.5-1.8c4.1-4.6,11-12.5,13-21.2c10,2.8,18,4.4,22.8,4.4C401.8,173.2,403.2,173,404.4,172.7z M323.7,150.6
	c4.6,1.7,9.1,3.4,13.5,5c-0.6,0.7-1.1,1.4-1.5,1.9c-2.4,3.1-4.3,5.7-5.9,7.8c-7.4,9.8-8.2,10.8-22.3,26.9c-3.6,4.1-7.4,6.6-9.9,6.6
	c-0.6,0-1.4-0.1-2.5-1.1c-1.7-1.4-2.6-2.8-2.7-4.1c-0.1-1.7,1.1-3.5,1.6-4.1c0.3-0.3,0.4-0.4,0.6-0.8c0.1-0.1,10.4-14.9,15.5-20.4
	c0.3-0.3,0.6-0.7,1.1-1.1C314.2,163.8,320,157.7,323.7,150.6z M312.9,138.3c0.4,4-3.6,10.5-12,19.1c-0.5,0.5-0.9,1-1.3,1.3
	c-5.4,5.8-14.8,19.3-16.5,21.6c-1.4,1.7-5.3,6.9-4.9,13.9c0.2,3.6,1.7,9,7.7,14.1c3.4,2.8,7.4,4.3,11.5,4.3
	c8.6,0,15.9-6.2,20.4-11.4c14.4-16.4,15.4-17.7,22.9-27.6c1.6-2.1,3.5-4.6,5.9-7.7c1.6-2.1,5.8-7.5,9.8-7.5c1.6,0,3.5,0.9,5.6,2.6
	c1.4,1.2,1.6,2.1,1.7,2.9c0.4,5-6.9,13.2-10,16.7c-0.7,0.8-1.3,1.5-1.8,2c-11.6,13.8-16,36.4-17.4,50.7c-8.9-0.2-17.7-0.3-26-0.3
	c-20,0-38.6-0.1-55.9-0.4l-105.4-3.7c5.4-33.3,63.5-88.1,89.2-112.3c4.7-4.5,8.3-6.4,11.6-6.4c2.9,0,6.1,1.5,9.7,4.5
	c1.3,1.1,4,4.1,0.3,8.6c-13.6,16.6-20.1,23.8-24.5,28.7c-3.1,3.5-5.3,5.9-8.2,9.7c-0.8,1.1-1.7,2.2-2.6,3.3
	c-4.4,5.6-8.9,11.4-11.5,17.1c-5.2,11.5,0,18.2,3.5,21.2c3.1,2.6,6.8,4,10.6,4c11.2,0,20.8-11.1,27.9-19.2l1.1-1.2
	c10.2-11.7,13.8-16.8,17.6-22.1c3.1-4.3,6.2-8.8,13.5-17.7l0.8-1c5.3-6.5,11.3-13.8,17.1-13.8c2,0,4.2,0.8,6.7,2.6
	C312.7,136.5,312.8,137.7,312.9,138.3z M271.2,129.6c2.7,1.1,5.4,2.3,8.2,3.4c-1.2,1.4-2.4,2.8-3.5,4.2l-0.8,1
	c-7.6,9.2-11.1,14.2-14.2,18.5c-3.7,5.2-6.9,9.8-16.7,21l-1.1,1.3c-4,4.7-12.4,14.3-17.3,14.3c-0.4,0-0.9-0.1-1.7-0.7
	c-0.6-0.5-1.3-1.1,0.3-4.7c1.9-4.2,5.9-9.3,9.7-14.2c0.9-1.1,1.8-2.3,2.6-3.4c2.6-3.3,4.4-5.4,7.6-8.9c4.4-4.9,11.1-12.3,24.9-29.1
	C270,131.4,270.6,130.5,271.2,129.6z M213.1,37c2.3,0,4.3,0.5,6,1.4c6.3,3.6,7.7,11.8,9.3,24.8c1.4,11.4,3.1,25.1,12.3,34.5
	c-1.3,0.4-2.4,1-3.6,1.6c-7.6-3.6-13.8-6.8-18-9.3c-14.3-8.5-23.4-16-32.1-23.4c-3.8-3.2-7.6-6.3-11.6-9.4
	C185.1,48.8,201.2,37,213.1,37z M39.2,162.1c10.9-2,24.9-13.1,41.8-33c8.2-9.7,15.7-19.6,23-29.1c16.6-21.8,32.3-42.4,43.5-42.4
	c1.5,0,2.9,0.4,4.3,1.2c2.9,1.5,5.5,3.1,8,4.7c6.5,4.3,12,8.9,18.1,13.9c8.7,7.3,18.6,15.6,33.9,24.7c2.5,1.5,5.8,3.3,9.8,5.2
	c1,0.5,2,1,3.1,1.6c-45.4,42.9-86.9,86.6-91.3,119.5c-60.9-4-81.4-9.2-81.7-9.3c-0.6-0.2-1.2-0.2-1.8-0.2c-1.1,0-2.4,0.1-3.8,0.2
	c-2.9-2.4-7-6.5-7-10.5L39.2,162.1L39.2,162.1z M472.1,267.9c0,12.7-10.3,23-23,23H50c-4.1,0-15,0-15-23v-12c0-14.7,4.5-20,8.7-21.9
	c2-0.9,4-1,5.4-1.1c6,1.4,38.5,8.2,127.9,11.9c21.8,0.9,197.9,3.7,211.3,4.3c33.3,1.3,59.8,2.8,60.3,2.8c0.1,0,0.3,0,0.4,0
	c11.8,0,17.6,2.9,20.4,6.3c2.6,3.2,2.6,6.8,2.6,8.7L472.1,267.9L472.1,267.9z"/>
<path class="st1" d="M377.1,145.5c-9.7-18.1-33.5-19.1-52.4-16.6c-5-7-13-11.9-24-14.6c-2-3.2-4.4-6.2-7.2-8.8
	c-5-4.7-10.8-7.9-16.4-10c12.4-1.9,27.8-6.2,36.3-15.8c4.9-5.6,7.1-12.5,6.1-20.1c-1.6-13.3-11-14.3-13.9-14.3
	c-8.2,0-19.1,7.5-29,16.3c3.5-16.5-0.4-25.8-3.2-29.9c-4.4-6.5-11.6-9.7-19.1-8.4c-2.2,0.4-5.4,1.6-8,5.2c-9.5,13.5-2.5,57.7-0.1,71
	c0,0.1,0,0.1,0,0.2c0.1,0.7,0.4,1.3,0.7,1.9c0.5,1,1.3,1.8,2.3,2.5c0.3,0.2,0.7,0.4,1,0.6c1,0.5,2.1,0.7,3.2,0.6
	c0.8,0,14.3-0.2,25.3,6.6c-0.5,0-1.1,0-1.6,0H277c-17.7,0-33.2,3.3-33.9,3.4c-3.8,0.8-6.2,4.5-5.4,8.3c0.8,3.8,4.5,6.2,8.3,5.4
	c9-1.9,28.9-4.5,45.3-2.1c1.7,4.3,2.6,9.3,2.7,14.8c0,2.2,1.1,4.3,3,5.6c1.8,1.3,4.2,1.6,6.3,0.9c10.7-3.7,38.4-11.2,53.4-3.7
	c1-0.3,6.3,0.9,9.7,2.9c4.7,2.8,7.6,5.7,7.8,6C376.1,151.1,378.5,148.2,377.1,145.5z M257.1,76.1c-0.3-2.5-0.5-5-0.8-7.6
	c-2-23,0.4-29.9,1.2-31.5c0,0,0.1,0,0.1,0c1.7,0,3.2,0.8,4.3,2.5C265.5,44.8,265.6,57.1,257.1,76.1z M305.2,59.3
	c0.1,0.4,0.3,1,0.4,2c0.4,3.6-0.4,6.5-2.7,9.1c-5.3,6-16.5,9.3-26.7,11C287.9,69.7,299.8,59.9,305.2,59.3z"/>
<g>
	
		<image style="overflow:visible;opacity:9.000000e-02;" width="505" height="162" xlink:href="2F09CFEE.png"  transform="matrix(1 0 0 1 -6 33)">
	</image>
	<g>
		<g>
			<path d="M24.6,101.6c0.6,4.1,1.3,8.2,2,12.3c0.4,0,0.8,0,1.3,0c8.2,0.5,13.1,1.2,15,1.5c4.5,0.9,7.8,2.8,9.8,5.5
				c1,1.3,1.5,2.9,1.7,4.7c0.2,1.8,0,3.6-0.7,5.4c-1.6,4.9-5,9.3-10.1,13.7c-2.8,2.4-5.6,4.2-8.3,5.6c0.3,1,0.6,2.1,0.9,3.1
				c0.3,0.9,0.4,1.6,0.4,1.8c0,0.3-0.2,0.6-0.5,0.9c-0.3,0.3-0.6,0.5-1,0.5c-0.4,0.1-0.6,0-0.8-0.2c-0.1-0.2-0.3-0.6-0.6-1.3
				c-0.1-0.3-0.1-0.5-0.2-0.8c-0.3-0.9-0.5-1.7-0.8-2.6c-5.5,2.2-9,2.6-10.5,1.1c-0.3-0.3-0.4-0.6-0.4-1.1c0-0.4,0.2-0.8,0.6-1.1
				c0.4-0.4,1.2-0.6,2.3-0.5c2.7,0.3,5.1-0.1,7.3-1c-1.1-4.2-2.2-8.4-3.2-12.6c-5.6-0.3-9.9-0.4-12.9-0.6c-5.9-0.4-10.1-1.7-12.3-4
				c-2.9-3-3.5-7.1-1.7-12.3c1.6-4.6,5-9.3,10.3-13.7c2.8-2.3,5.8-4.3,9-5.8c-0.2-1.2-0.4-2.5-0.6-3.7c-0.1-0.8,0-1.4,0.5-1.7
				c0.4-0.3,0.8-0.5,1.3-0.6c0.5-0.1,0.8,0,1,0.3c0.2,0.3,0.5,1.8,0.9,4.5c5-1.5,7.8-1.8,8.4-0.9c0.2,0.3,0.2,0.6,0.1,1.1
				c-0.1,0.5-0.4,0.8-0.7,1.1c-0.5,0.4-1.8,0.6-3.9,0.7C26.8,100.9,25.6,101.2,24.6,101.6z M31.6,136.6c0.9,3.8,1.9,7.6,3,11.4
				c2.4-1.1,4.6-2.5,6.6-4.3c1-0.9,1.7-1.7,2.1-2.6c0.3-0.8,0.2-1.5-0.2-2.1c-0.5-0.6-1.8-1.1-3.9-1.6C37,137,34.5,136.7,31.6,136.6
				z M21.7,102.5c-2.6,1.3-4.7,2.6-6.2,3.9c-1.2,1-1.9,1.9-2.3,2.7c-0.3,0.8-0.2,1.5,0.3,2.2c0.8,1,4.3,1.7,10.2,2.5
				C23,110,22.3,106.3,21.7,102.5z"/>
			<path d="M66.7,80.5c0.8,1.4,1.6,2.8,2.4,4.2c2-3.4,4.3-6.4,6.8-8.8c2.5-2.4,5.1-4.4,8-5.8c3.8-1.9,7.3-2.7,10.6-2.6
				c2.5,0.1,4.4,0.8,5.8,2.1c1.4,1.2,2.8,3.6,4.4,7.2c2.2,5,4.3,9.9,6.5,14.9c1.1,2.5,2.3,5,3.4,7.4c-6.1,2.7-12.1,5.6-18,8.7
				c-1.5-2.9-3-5.8-4.4-8.7c-1.1-2.1-2.2-4.3-3.2-6.4c-1.7-3.2-3.4-6.4-5.1-9.6c-1.2-2.2-1.9-3.5-2.2-3.9c-0.3-0.4-0.6-0.7-1-0.9
				c-0.8-0.4-1.8-0.3-3.2,0.4c-1.3,0.7-2.5,1.7-3.6,3.1c-1.1,1.4-2.2,3.1-3.3,5.2c0.2,0.4,0.5,0.8,0.7,1.3c1.6,2.9,3.2,5.7,4.9,8.6
				c1.2,2.2,2.5,4.4,3.7,6.6c1.8,3,3.5,5.9,5.3,8.9c0.3,0.4,0.5,0.9,0.8,1.3c-5.9,3.4-11.6,7-17.3,10.8c-2.5-3.8-5.1-7.7-7.6-11.5
				c-1.7-2.5-3.3-5.1-5-7.6c-1.5-2.2-3-4.3-4.5-6.5c-1.5-2.1-2.9-4.2-4.4-6.3C53.5,88.4,60,84.3,66.7,80.5z"/>
			<path d="M131.1,73.2c1.2,3.4,2.4,6.9,3.6,10.3c0.7,2,1.3,3.2,1.7,3.6c0.9,0.8,2.3,0.9,4.2,0.3c2.9-1,5.5-2.6,7.9-4.9
				c2.4-2.3,4.4-5,5.8-8.1c0.5-1,0.8-1.7,1.1-2c0.3-0.3,0.6-0.5,0.9-0.6c0.4-0.1,0.8-0.1,1.2,0.1c0.4,0.2,0.6,0.5,0.7,1
				c0.2,1-0.3,2.5-1.6,4.5c-1.7,2.7-4,5.1-6.9,7.3c-2.9,2.3-5.8,3.9-8.9,4.9c-5.2,1.8-10.4,1.9-15.6,0.3c-3.1-0.9-5.8-2.4-8.2-4.6
				c-2.1-1.9-3.7-4-4.6-6.3c-0.9-2.2-1.4-4.7-1.3-7.4c0.1-2.7,0.8-5.3,2-7.7c1.4-2.8,3.5-5.3,6.1-7.5c2.6-2.2,5.6-3.8,8.9-4.9
				c5.2-1.7,10.3-1.9,15.2-0.7c7.6,2,12.2,6.8,14,14.2c-3.1,0.8-6.2,1.6-9.3,2.5c-4,1.1-7.9,2.4-11.8,3.7
				C134.7,71.9,132.9,72.6,131.1,73.2z M140.5,67.7c-1-3.3-2-6.5-3.1-9.8c-0.7-2.1-1.2-3.3-1.3-3.7c-0.2-0.4-0.5-0.7-0.9-1
				c-1.1-0.6-2.8-0.6-5.2,0.2c-2.4,0.8-3.8,1.8-4.1,3c-0.2,0.7,0.2,2.4,1.1,4.9c1.1,3.2,2.3,6.4,3.4,9.7c1.6-0.5,3.2-1,4.9-1.5
				C136.9,68.9,138.7,68.3,140.5,67.7z"/>
			<path d="M191.8,53.1c-0.2-1.4-0.4-2.8-0.6-4.2c-0.4-2.9-0.7-4.7-0.9-5.4c-0.2-0.7-0.5-1.2-1-1.7c-1.2-1.2-3.7-1.5-7.5-0.9
				c-5.9,1-10.1,3.3-12.6,6.9c-1,1.5-2,2.3-2.8,2.5c-0.6,0.1-1.2,0.1-1.8-0.2c-0.6-0.3-0.9-0.6-1-1.1c-0.3-1.4,1.4-3.4,5.4-5.8
				c3.7-2.3,8.9-4,15.4-5c10.7-1.6,18.4-1,23,1.2c2,1,3.3,2.2,4,3.6c0.7,1.4,1.1,3.9,1.4,7.5c0.3,4.6,0.7,9.3,1,13.9
				c0.1,2.6,0.3,4.5,0.7,5.8c0.4,1.3,1.1,2.6,2.1,4.1c-7.2,0.5-14.4,1.2-21.5,2.2c-0.2-1.2-0.3-2.4-0.5-3.7
				c-2.2,1.8-4.3,3.2-6.5,4.4c-2.2,1.1-4.4,1.9-6.6,2.3c-3.8,0.7-7.3,0.4-10.7-0.9c-4.4-1.8-7.2-4.6-8.2-8.8c-0.9-3.7,0-7,2.8-10
				c3.2-3.5,7.8-5.9,13.7-6.9c2.4-0.4,4.5-0.6,6.4-0.5C187.2,52.2,189.4,52.5,191.8,53.1z M192.2,55.6c-3.6-1-6.5-1.3-8.3-1
				c-1.6,0.3-2.5,1-2.8,2.1c-0.2,0.6,0,2.3,0.5,5.1c0.5,2.8,1,5.5,1.5,8.3c0.3,1.8,0.6,2.9,0.8,3.3c0.4,1,1.4,1.4,2.9,1.1
				c1.2-0.2,2.5-0.7,3.8-1.6c1.4-0.9,2.6-1.9,3.7-3.1C193.4,65.1,192.8,60.4,192.2,55.6z"/>
			<path d="M259.1,43.2c1.5,2.3,2.9,4.7,4.3,7c1.3,2.3,2.6,4.6,3.9,6.9c3.8,6.6,6.1,11.1,7.4,13.3c1.3,2.2,2.7,4.2,4.3,6.2
				c-7.6-1.1-15.2-1.9-22.9-2.4c-2.1-3.9-4.3-7.8-6.6-11.7c-2.5-4.4-4.6-7.5-6-9.4c0,0.5,0,1.1,0,1.6c0,2.1-0.1,4.2-0.1,6.3
				c-0.1,3.7-0.1,7.3-0.2,11c0,0.6,0,1.1,0,1.7c-6.6-0.2-13.2-0.1-19.8,0.2c-0.2-5.6-0.4-11.3-0.5-16.9c-0.1-3.3-0.2-6.5-0.4-9.8
				c-0.3-6.5-0.7-13.1-1-19.6c0-0.5-0.1-1.1-0.1-1.6c7.7-0.3,15.3-0.4,23-0.2c-0.2,7.7-0.5,15.4-0.7,23.1c0,0.6,0,1.3,0,1.9
				c7.9-5.7,13.7-9.2,16.8-10.8c4.1-2.1,7.7-3,10.7-2.7c2.2,0.2,3.3,1,3.1,2.3c-0.1,0.5-0.3,0.8-0.7,1.1c-0.4,0.3-1,0.4-1.5,0.3
				c-0.3,0-0.7-0.1-1.2-0.3c-0.8-0.3-1.4-0.4-1.8-0.5c-1.2-0.1-2.5,0-3.9,0.5C263.5,41,261.5,41.9,259.1,43.2z"/>
			<path d="M299.4,61.8c-0.7,3.6-1.4,7.1-2.2,10.7c-0.4,2.1-0.5,3.4-0.4,4c0.3,1.2,1.5,1.9,3.5,2.4c2.9,0.6,6,0.6,9.3-0.1
				c3.2-0.7,6.3-2,9.1-4c0.9-0.6,1.6-1,2-1.2c0.4-0.1,0.7-0.2,1.1-0.1c0.4,0.1,0.8,0.4,1,0.7c0.2,0.4,0.2,0.8,0.1,1.2
				c-0.3,0.9-1.5,2-3.7,3.1c-2.8,1.4-6,2.3-9.7,2.8c-3.6,0.5-7,0.4-10.1-0.3c-5.4-1.2-9.8-3.7-13.5-7.7c-2.1-2.3-3.7-5-4.6-8.1
				c-0.8-2.7-1.1-5.3-0.7-7.8c0.3-2.4,1.2-4.8,2.7-7c1.5-2.3,3.3-4.1,5.6-5.6c2.6-1.7,5.6-2.8,9-3.4c3.3-0.5,6.7-0.4,10.1,0.3
				c5.3,1.1,9.8,3.6,13.3,7.1c5.6,5.6,7,12.1,4.8,19.3c-3.1-0.9-6.2-1.8-9.3-2.6c-4-1-8-2-12-2.9C303.1,62.5,301.3,62.1,299.4,61.8z
				 M310.2,61.8c0.8-3.3,1.6-6.6,2.4-10c0.5-2.2,0.7-3.4,0.7-3.9c0-0.4-0.1-0.9-0.3-1.3c-0.6-1.1-2.1-1.9-4.5-2.4
				c-2.5-0.5-4.2-0.3-5,0.6c-0.5,0.5-1,2.1-1.6,4.7c-0.7,3.3-1.4,6.7-2,10c1.6,0.4,3.3,0.8,4.9,1.2C306.6,61,308.4,61.4,310.2,61.8z
				"/>
			<path d="M355.8,68.6c-1.7,4.2-3.3,8.4-5,12.5c-1.7,4.4-3.3,8.7-5,13.1c-6.3-2.5-12.6-4.7-18.9-6.7c0.2-0.6,0.4-1.2,0.6-1.8
				c0.7-2.3,1.5-4.5,2.2-6.8c1.3-4.1,2.7-8.2,4.1-12.3c1.4-4.6,2.8-9.2,4.2-13.7c0.2-0.7,0.4-1.3,0.6-2c7.2,2.3,14.3,4.8,21.3,7.5
				c-0.9,2.2-1.8,4.5-2.6,6.7c4.1-1.5,7-2.2,8.5-2.4c3.5-0.4,6.5,0,9,1.1c1.5,0.7,2.6,1.5,3.4,2.5c0.7,1,0.9,1.8,0.6,2.6
				c-0.3,0.6-0.8,1-1.6,1.1c-0.8,0.1-1.6,0-2.5-0.4c-0.6-0.3-1.1-0.7-1.7-1.2c-1-1-1.8-1.6-2.6-2c-1.9-0.8-4-1.1-6.3-0.8
				C361.7,66,359,67,355.8,68.6z"/>
			<path d="M418.4,81.1c-3.6,2-7.2,4.1-10.8,6.2c0.1,0.4,0.3,0.8,0.4,1.2c2.2,7.8,3.3,12.6,3.6,14.5c0.7,4.5,0.1,8.2-1.9,11.1
				c-0.9,1.3-2.2,2.4-3.8,3.2c-1.6,0.8-3.4,1.2-5.3,1.3c-5.1,0.2-10.3-1.4-16-4.7c-3.1-1.8-5.7-3.7-7.8-5.7
				c-0.9,0.6-1.7,1.3-2.5,1.9c-0.8,0.6-1.3,0.9-1.5,1c-0.3,0.1-0.6,0-1-0.2c-0.4-0.2-0.6-0.4-0.8-0.7c-0.2-0.3-0.2-0.6,0-0.8
				c0.1-0.2,0.4-0.5,1-1c0.2-0.2,0.4-0.3,0.7-0.5c0.7-0.6,1.4-1.1,2.1-1.7c-3.7-4.3-5.2-7.3-4.3-9.3c0.2-0.4,0.5-0.6,0.9-0.7
				c0.4-0.1,0.8-0.1,1.2,0.1c0.5,0.3,0.9,0.9,1.1,1.9c0.6,2.6,1.7,4.7,3.2,6.4c3.5-2.5,7-5,10.6-7.5c-1.6-5.3-2.8-9.3-3.6-12.1
				c-1.5-5.6-1.6-9.9-0.2-12.8c1.8-3.7,5.3-5.8,10.6-6c4.7-0.2,10.1,1.4,15.9,4.7c3,1.8,5.8,3.9,8.3,6.3c1.1-0.6,2.2-1.2,3.3-1.8
				c0.7-0.4,1.3-0.4,1.8-0.1c0.4,0.3,0.7,0.6,0.9,1c0.2,0.4,0.2,0.7,0.1,1c-0.2,0.3-1.5,1.1-3.9,2.4c3.1,4.1,4.3,6.7,3.7,7.5
				c-0.2,0.3-0.5,0.4-1,0.5c-0.5,0-0.9-0.1-1.2-0.3c-0.5-0.3-1.2-1.5-2-3.4C419.7,82.9,419.1,81.9,418.4,81.1z M388.2,100
				c-3.2,2.2-6.4,4.5-9.5,6.8c1.8,1.8,3.8,3.4,6.1,4.6c1.2,0.7,2.2,1,3,1c0.9,0,1.5-0.3,1.9-1c0.4-0.6,0.5-2,0.2-4.2
				C389.6,105.1,389.1,102.7,388.2,100z M416.5,78.7c-2-2-3.9-3.4-5.6-4.4c-1.3-0.8-2.4-1.1-3.2-1.2c-0.9,0-1.5,0.3-1.9,1.1
				c-0.7,1.1-0.2,4.6,1,10.4C410,82.6,413.2,80.6,416.5,78.7z"/>
			<path d="M467.5,118.3c-4,1.3-7.9,2.6-11.8,4.1c0.1,0.4,0.1,0.8,0.2,1.2c0.9,8.2,1.2,13.2,1.2,15.2c0,4.7-1.3,8.2-3.7,10.7
				c-1.1,1.2-2.6,2-4.4,2.5c-1.8,0.5-3.6,0.6-5.5,0.2c-5.1-0.8-10.1-3.4-15.3-7.8c-2.8-2.4-5.1-4.7-6.9-7.2c-1,0.5-1.9,0.9-2.9,1.4
				c-0.9,0.4-1.5,0.7-1.7,0.7c-0.3,0-0.6-0.1-0.9-0.3c-0.3-0.3-0.6-0.5-0.7-0.9c-0.1-0.3-0.1-0.6,0.1-0.8c0.1-0.2,0.5-0.4,1.2-0.8
				c0.2-0.1,0.5-0.2,0.7-0.4c0.8-0.4,1.6-0.8,2.4-1.2c-3-5-4-8.3-2.7-10c0.2-0.3,0.6-0.5,1-0.5c0.4,0,0.8,0.1,1.2,0.4
				c0.5,0.3,0.7,1.1,0.8,2.1c0.2,2.6,0.9,5,2.2,7c3.9-1.9,7.8-3.6,11.8-5.4c-0.7-5.6-1.3-9.8-1.6-12.7c-0.5-5.9,0-10.1,2-12.8
				c2.4-3.3,6.3-4.7,11.7-3.9c4.8,0.7,9.9,3.3,15.2,7.7c2.8,2.3,5.2,5,7.3,7.9c1.2-0.4,2.4-0.8,3.6-1.2c0.8-0.3,1.4-0.2,1.8,0.2
				c0.4,0.3,0.6,0.7,0.8,1.2c0.1,0.4,0.1,0.8-0.1,1c-0.3,0.3-1.7,0.8-4.3,1.6c2.4,4.7,3.2,7.5,2.5,8.2c-0.2,0.2-0.6,0.3-1.1,0.3
				c-0.5-0.1-0.9-0.2-1.2-0.5c-0.5-0.4-0.9-1.7-1.4-3.7C468.5,120.4,468.1,119.2,467.5,118.3z M434.1,131.2
				c-3.6,1.6-7.1,3.2-10.7,4.9c1.5,2.1,3.2,4.1,5.3,5.8c1.1,0.9,2,1.4,2.9,1.6c0.9,0.2,1.5,0,2-0.6c0.5-0.6,0.8-1.9,0.9-4.1
				C434.7,136.5,434.6,134,434.1,131.2z M466,115.5c-1.7-2.3-3.4-4.2-4.9-5.5c-1.2-1-2.2-1.6-3-1.8c-0.9-0.2-1.5,0-2.1,0.7
				c-0.8,1-1,4.5-0.7,10.5C458.9,118.1,462.4,116.8,466,115.5z"/>
		</g>
	</g>
</g>
<g>
	
		<image style="overflow:visible;opacity:9.000000e-02;" width="505" height="162" xlink:href="2F09CFE9.png"  transform="matrix(1 0 0 1 -7 36)">
	</image>
	<g>
		<g>
			<path class="st3" d="M23.3,104.3c0.6,4.1,1.3,8.2,2,12.3c0.4,0,0.8,0,1.3,0c8.2,0.5,13.1,1.2,15,1.5c4.5,0.9,7.8,2.8,9.8,5.5
				c1,1.3,1.5,2.9,1.7,4.7c0.2,1.8,0,3.6-0.7,5.4c-1.6,4.9-5,9.3-10.1,13.7c-2.8,2.4-5.6,4.2-8.3,5.6c0.3,1,0.6,2.1,0.9,3.1
				c0.3,0.9,0.4,1.6,0.4,1.8c0,0.3-0.2,0.6-0.5,0.9c-0.3,0.3-0.6,0.5-1,0.5c-0.4,0.1-0.6,0-0.8-0.2c-0.1-0.2-0.3-0.6-0.6-1.3
				c-0.1-0.3-0.1-0.5-0.2-0.8c-0.3-0.9-0.5-1.7-0.8-2.6c-5.5,2.2-9,2.6-10.5,1.1c-0.3-0.3-0.4-0.6-0.4-1.1c0-0.4,0.2-0.8,0.6-1.1
				c0.4-0.4,1.2-0.6,2.3-0.5c2.7,0.3,5.1-0.1,7.3-1c-1.1-4.2-2.2-8.4-3.2-12.6c-5.6-0.3-9.9-0.4-12.9-0.6c-5.9-0.4-10.1-1.7-12.3-4
				c-2.9-3-3.5-7.1-1.7-12.3c1.6-4.6,5-9.3,10.3-13.7c2.8-2.3,5.8-4.3,9-5.8c-0.2-1.2-0.4-2.5-0.6-3.7c-0.1-0.8,0-1.4,0.5-1.7
				c0.4-0.3,0.8-0.5,1.3-0.6c0.5-0.1,0.8,0,1,0.3c0.2,0.3,0.5,1.8,0.9,4.5c5-1.5,7.8-1.8,8.4-0.9c0.2,0.3,0.2,0.6,0.1,1.1
				c-0.1,0.5-0.4,0.8-0.7,1.1c-0.5,0.4-1.8,0.6-3.9,0.7C25.5,103.7,24.3,103.9,23.3,104.3z M30.3,139.4c0.9,3.8,1.9,7.6,3,11.4
				c2.4-1.1,4.6-2.5,6.6-4.3c1-0.9,1.7-1.7,2.1-2.6c0.3-0.8,0.2-1.5-0.2-2.1c-0.5-0.6-1.8-1.1-3.9-1.6
				C35.7,139.8,33.2,139.5,30.3,139.4z M20.4,105.3c-2.6,1.3-4.7,2.6-6.2,3.9c-1.2,1-1.9,1.9-2.3,2.7c-0.3,0.8-0.2,1.5,0.3,2.2
				c0.8,1,4.3,1.7,10.2,2.5C21.7,112.8,21.1,109,20.4,105.3z"/>
			<path class="st3" d="M65.4,83.3c0.8,1.4,1.6,2.8,2.4,4.2c2-3.4,4.3-6.4,6.8-8.8c2.5-2.4,5.1-4.4,8-5.8c3.8-1.9,7.3-2.7,10.6-2.6
				c2.5,0.1,4.4,0.8,5.8,2.1c1.4,1.2,2.8,3.6,4.4,7.2c2.2,5,4.3,9.9,6.5,14.9c1.1,2.5,2.3,5,3.4,7.4c-6.1,2.7-12.1,5.6-18,8.7
				c-1.5-2.9-3-5.8-4.4-8.7c-1.1-2.1-2.2-4.3-3.2-6.4c-1.7-3.2-3.4-6.4-5.1-9.6c-1.2-2.2-1.9-3.5-2.2-3.9c-0.3-0.4-0.6-0.7-1-0.9
				c-0.8-0.4-1.8-0.3-3.2,0.4c-1.3,0.7-2.5,1.7-3.6,3.1c-1.1,1.4-2.2,3.1-3.3,5.2c0.2,0.4,0.5,0.8,0.7,1.3c1.6,2.9,3.2,5.7,4.9,8.6
				c1.2,2.2,2.5,4.4,3.7,6.6c1.8,3,3.5,5.9,5.3,8.9c0.3,0.4,0.5,0.9,0.8,1.3c-5.9,3.4-11.6,7-17.3,10.8c-2.5-3.8-5.1-7.7-7.6-11.5
				c-1.7-2.5-3.3-5.1-5-7.6c-1.5-2.2-3-4.3-4.5-6.5c-1.5-2.1-2.9-4.2-4.4-6.3C52.2,91.2,58.8,87.1,65.4,83.3z"/>
			<path class="st3" d="M129.8,76c1.2,3.4,2.4,6.9,3.6,10.3c0.7,2,1.3,3.2,1.7,3.6c0.9,0.8,2.3,0.9,4.2,0.3c2.9-1,5.5-2.6,7.9-4.9
				c2.4-2.3,4.4-5,5.8-8.1c0.5-1,0.8-1.7,1.1-2c0.3-0.3,0.6-0.5,0.9-0.6c0.4-0.1,0.8-0.1,1.2,0.1c0.4,0.2,0.6,0.5,0.7,1
				c0.2,1-0.3,2.5-1.6,4.5c-1.7,2.7-4,5.1-6.9,7.3c-2.9,2.3-5.8,3.9-8.9,4.9c-5.2,1.8-10.4,1.9-15.6,0.3c-3.1-0.9-5.8-2.4-8.2-4.6
				c-2.1-1.9-3.7-4-4.6-6.3c-0.9-2.2-1.4-4.7-1.3-7.4c0.1-2.7,0.8-5.3,2-7.7c1.4-2.8,3.5-5.3,6.1-7.5c2.6-2.2,5.6-3.8,8.9-4.9
				c5.2-1.7,10.3-1.9,15.2-0.7c7.6,2,12.2,6.8,14,14.2c-3.1,0.8-6.2,1.6-9.3,2.5c-4,1.1-7.9,2.4-11.8,3.7
				C133.4,74.7,131.6,75.3,129.8,76z M139.2,70.4c-1-3.3-2-6.5-3.1-9.8c-0.7-2.1-1.2-3.3-1.3-3.7c-0.2-0.4-0.5-0.7-0.9-1
				c-1.1-0.6-2.8-0.6-5.2,0.2c-2.4,0.8-3.8,1.8-4.1,3c-0.2,0.7,0.2,2.4,1.1,4.9c1.1,3.2,2.3,6.4,3.4,9.7c1.6-0.5,3.2-1,4.9-1.5
				C135.7,71.6,137.5,71,139.2,70.4z"/>
			<path class="st3" d="M190.6,55.9c-0.2-1.4-0.4-2.8-0.6-4.2c-0.4-2.9-0.7-4.7-0.9-5.4c-0.2-0.7-0.5-1.2-1-1.7
				c-1.2-1.2-3.7-1.5-7.5-0.9c-5.9,1-10.1,3.3-12.6,6.9c-1,1.5-2,2.3-2.8,2.5c-0.6,0.1-1.2,0.1-1.8-0.2c-0.6-0.3-0.9-0.6-1-1.1
				c-0.3-1.4,1.4-3.4,5.4-5.8c3.7-2.3,8.9-4,15.4-5c10.7-1.6,18.4-1,23,1.2c2,1,3.3,2.2,4,3.6c0.7,1.4,1.1,3.9,1.4,7.5
				c0.3,4.6,0.7,9.3,1,13.9c0.1,2.6,0.3,4.5,0.7,5.8c0.4,1.3,1.1,2.6,2.1,4.1c-7.2,0.5-14.4,1.2-21.5,2.2c-0.2-1.2-0.3-2.4-0.5-3.7
				c-2.2,1.8-4.3,3.2-6.5,4.4c-2.2,1.1-4.4,1.9-6.6,2.3c-3.8,0.7-7.3,0.4-10.7-0.9c-4.4-1.8-7.2-4.6-8.2-8.8c-0.9-3.7,0-7,2.8-10
				c3.2-3.5,7.8-5.9,13.7-6.9c2.4-0.4,4.5-0.6,6.4-0.5C185.9,54.9,188.1,55.3,190.6,55.9z M190.9,58.4c-3.6-1-6.5-1.3-8.3-1
				c-1.6,0.3-2.5,1-2.8,2.1c-0.2,0.6,0,2.3,0.5,5.1c0.5,2.8,1,5.5,1.5,8.3c0.3,1.8,0.6,2.9,0.8,3.3c0.4,1,1.4,1.4,2.9,1.1
				c1.2-0.2,2.5-0.7,3.8-1.6c1.4-0.9,2.6-1.9,3.7-3.1C192.2,67.9,191.6,63.2,190.9,58.4z"/>
			<path class="st3" d="M257.8,46c1.5,2.3,2.9,4.7,4.3,7c1.3,2.3,2.6,4.6,3.9,6.9c3.8,6.6,6.1,11.1,7.4,13.3
				c1.3,2.2,2.7,4.2,4.3,6.2c-7.6-1.1-15.2-1.9-22.9-2.4c-2.1-3.9-4.3-7.8-6.6-11.7c-2.5-4.4-4.6-7.5-6-9.4c0,0.5,0,1.1,0,1.6
				c0,2.1-0.1,4.2-0.1,6.3c-0.1,3.7-0.1,7.3-0.2,11c0,0.6,0,1.1,0,1.7c-6.6-0.2-13.2-0.1-19.8,0.2c-0.2-5.6-0.4-11.3-0.5-16.9
				c-0.1-3.3-0.2-6.5-0.4-9.8c-0.3-6.5-0.7-13.1-1-19.6c0-0.5-0.1-1.1-0.1-1.6c7.7-0.3,15.3-0.4,23-0.2c-0.2,7.7-0.5,15.4-0.7,23.1
				c0,0.6,0,1.3,0,1.9c7.9-5.7,13.7-9.2,16.8-10.8c4.1-2.1,7.7-3,10.7-2.7c2.2,0.2,3.3,1,3.1,2.3c-0.1,0.5-0.3,0.8-0.7,1.1
				c-0.4,0.3-1,0.4-1.5,0.3c-0.3,0-0.7-0.1-1.2-0.3c-0.8-0.3-1.4-0.4-1.8-0.5c-1.2-0.1-2.5,0-3.9,0.5
				C262.2,43.8,260.3,44.7,257.8,46z"/>
			<path class="st3" d="M298.2,64.5c-0.7,3.6-1.4,7.1-2.2,10.7c-0.4,2.1-0.5,3.4-0.4,4c0.3,1.2,1.5,1.9,3.5,2.4
				c2.9,0.6,6,0.6,9.3-0.1c3.2-0.7,6.3-2,9.1-4c0.9-0.6,1.6-1,2-1.2c0.4-0.1,0.7-0.2,1.1-0.1c0.4,0.1,0.8,0.4,1,0.7
				c0.2,0.4,0.2,0.8,0.1,1.2c-0.3,0.9-1.5,2-3.7,3.1c-2.8,1.4-6,2.3-9.7,2.8c-3.6,0.5-7,0.4-10.1-0.3c-5.4-1.2-9.8-3.7-13.5-7.7
				c-2.1-2.3-3.7-5-4.6-8.1c-0.8-2.7-1.1-5.3-0.7-7.8c0.3-2.4,1.2-4.8,2.7-7c1.5-2.3,3.3-4.1,5.6-5.6c2.6-1.7,5.6-2.8,9-3.4
				c3.3-0.5,6.7-0.4,10.1,0.3c5.3,1.1,9.8,3.6,13.3,7.1c5.6,5.6,7,12.1,4.8,19.3c-3.1-0.9-6.2-1.8-9.3-2.6c-4-1-8-2-12-2.9
				C301.8,65.3,300,64.9,298.2,64.5z M309,64.5c0.8-3.3,1.6-6.6,2.4-10c0.5-2.2,0.7-3.4,0.7-3.9c0-0.4-0.1-0.9-0.3-1.3
				c-0.6-1.1-2.1-1.9-4.5-2.4c-2.5-0.5-4.2-0.3-5,0.6c-0.5,0.5-1,2.1-1.6,4.7c-0.7,3.3-1.4,6.7-2,10c1.6,0.4,3.3,0.8,4.9,1.2
				C305.4,63.8,307.2,64.2,309,64.5z"/>
			<path class="st3" d="M354.6,71.4c-1.7,4.2-3.3,8.4-5,12.5c-1.7,4.4-3.3,8.7-5,13.1c-6.3-2.5-12.6-4.7-18.9-6.7
				c0.2-0.6,0.4-1.2,0.6-1.8c0.7-2.3,1.5-4.5,2.2-6.8c1.3-4.1,2.7-8.2,4.1-12.3c1.4-4.6,2.8-9.2,4.2-13.7c0.2-0.7,0.4-1.3,0.6-2
				c7.2,2.3,14.3,4.8,21.3,7.5c-0.9,2.2-1.8,4.5-2.6,6.7c4.1-1.5,7-2.2,8.5-2.4c3.5-0.4,6.5,0,9,1.1c1.5,0.7,2.6,1.5,3.4,2.5
				c0.7,1,0.9,1.8,0.6,2.6c-0.3,0.6-0.8,1-1.6,1.1c-0.8,0.1-1.6,0-2.5-0.4c-0.6-0.3-1.1-0.7-1.7-1.2c-1-1-1.8-1.6-2.6-2
				c-1.9-0.8-4-1.1-6.3-0.8C360.5,68.8,357.8,69.8,354.6,71.4z"/>
			<path class="st3" d="M417.1,83.9c-3.6,2-7.2,4.1-10.8,6.2c0.1,0.4,0.3,0.8,0.4,1.2c2.2,7.8,3.3,12.6,3.6,14.5
				c0.7,4.5,0.1,8.2-1.9,11.1c-0.9,1.3-2.2,2.4-3.8,3.2c-1.6,0.8-3.4,1.2-5.3,1.3c-5.1,0.2-10.3-1.4-16-4.7
				c-3.1-1.8-5.7-3.7-7.8-5.7c-0.9,0.6-1.7,1.3-2.5,1.9c-0.8,0.6-1.3,0.9-1.5,1c-0.3,0.1-0.6,0-1-0.2c-0.4-0.2-0.6-0.4-0.8-0.7
				c-0.2-0.3-0.2-0.6,0-0.8c0.1-0.2,0.4-0.5,1-1c0.2-0.2,0.4-0.3,0.7-0.5c0.7-0.6,1.4-1.1,2.1-1.7c-3.7-4.3-5.2-7.3-4.3-9.3
				c0.2-0.4,0.5-0.6,0.9-0.7c0.4-0.1,0.8-0.1,1.2,0.1c0.5,0.3,0.9,0.9,1.1,1.9c0.6,2.6,1.7,4.7,3.2,6.4c3.5-2.5,7-5,10.6-7.5
				c-1.6-5.3-2.8-9.3-3.6-12.1c-1.5-5.6-1.6-9.9-0.2-12.8c1.8-3.7,5.3-5.8,10.6-6c4.7-0.2,10.1,1.4,15.9,4.7c3,1.8,5.8,3.9,8.3,6.3
				c1.1-0.6,2.2-1.2,3.3-1.8c0.7-0.4,1.3-0.4,1.8-0.1c0.4,0.3,0.7,0.6,0.9,1c0.2,0.4,0.2,0.7,0.1,1c-0.2,0.3-1.5,1.1-3.9,2.4
				c3.1,4.1,4.3,6.7,3.7,7.5c-0.2,0.3-0.5,0.4-1,0.5c-0.5,0-0.9-0.1-1.2-0.3c-0.5-0.3-1.2-1.5-2-3.4
				C418.4,85.7,417.8,84.7,417.1,83.9z M387,102.7c-3.2,2.2-6.4,4.5-9.5,6.8c1.8,1.8,3.8,3.4,6.1,4.6c1.2,0.7,2.2,1,3,1
				c0.9,0,1.5-0.3,1.9-1c0.4-0.6,0.5-2,0.2-4.2C388.4,107.8,387.8,105.4,387,102.7z M415.3,81.5c-2-2-3.9-3.4-5.6-4.4
				c-1.3-0.8-2.4-1.1-3.2-1.2c-0.9,0-1.5,0.3-1.9,1.1c-0.7,1.1-0.2,4.6,1,10.4C408.8,85.3,412,83.4,415.3,81.5z"/>
			<path class="st3" d="M466.2,121.1c-4,1.3-7.9,2.6-11.8,4.1c0.1,0.4,0.1,0.8,0.2,1.2c0.9,8.2,1.2,13.2,1.2,15.2
				c0,4.7-1.3,8.2-3.7,10.7c-1.1,1.2-2.6,2-4.4,2.5c-1.8,0.5-3.6,0.6-5.5,0.2c-5.1-0.8-10.1-3.4-15.3-7.8c-2.8-2.4-5.1-4.7-6.9-7.2
				c-1,0.5-1.9,0.9-2.9,1.4c-0.9,0.4-1.5,0.7-1.7,0.7c-0.3,0-0.6-0.1-0.9-0.3c-0.3-0.3-0.6-0.5-0.7-0.9c-0.1-0.3-0.1-0.6,0.1-0.8
				c0.1-0.2,0.5-0.4,1.2-0.8c0.2-0.1,0.5-0.2,0.7-0.4c0.8-0.4,1.6-0.8,2.4-1.2c-3-5-4-8.3-2.7-10c0.2-0.3,0.6-0.5,1-0.5
				c0.4,0,0.8,0.1,1.2,0.4c0.5,0.3,0.7,1.1,0.8,2.1c0.2,2.6,0.9,5,2.2,7c3.9-1.9,7.8-3.6,11.8-5.4c-0.7-5.6-1.3-9.8-1.6-12.7
				c-0.5-5.9,0-10.1,2-12.8c2.4-3.3,6.3-4.7,11.7-3.9c4.8,0.7,9.9,3.3,15.2,7.7c2.8,2.3,5.2,5,7.3,7.9c1.2-0.4,2.4-0.8,3.6-1.2
				c0.8-0.3,1.4-0.2,1.8,0.2c0.4,0.3,0.6,0.7,0.8,1.2c0.1,0.4,0.1,0.8-0.1,1c-0.3,0.3-1.7,0.8-4.3,1.6c2.4,4.7,3.2,7.5,2.5,8.2
				c-0.2,0.2-0.6,0.3-1.1,0.3c-0.5-0.1-0.9-0.2-1.2-0.5c-0.5-0.4-0.9-1.7-1.4-3.7C467.3,123.1,466.8,122,466.2,121.1z M432.9,133.9
				c-3.6,1.6-7.1,3.2-10.7,4.9c1.5,2.1,3.2,4.1,5.3,5.8c1.1,0.9,2,1.4,2.9,1.6c0.9,0.2,1.5,0,2-0.6c0.5-0.6,0.8-1.9,0.9-4.1
				C433.4,139.3,433.3,136.8,432.9,133.9z M464.8,118.3c-1.7-2.3-3.4-4.2-4.9-5.5c-1.2-1-2.2-1.6-3-1.8c-0.9-0.2-1.5,0-2.1,0.7
				c-0.8,1-1,4.5-0.7,10.5C457.6,120.9,461.2,119.6,464.8,118.3z"/>
		</g>
	</g>
</g>
</svg>
